<?xml version="1.0" encoding="UTF-8" standalone="yes"?>
<svg version="1.0" xmlns="http://www.w3.org/2000/svg" width="700.000000pt" height="700.000000pt" viewBox="0 0 875.000000 875.000000" preserveAspectRatio="xMidYMid meet">
  <metadata>
Created by potrace 1.15, written by Peter Selinger 2001-2017
</metadata>
  <g transform="translate(0.000000,875.000000) scale(0.100000,-0.100000)" fill="#000000" stroke="none">
    <path d="M4338 6474 c-331 -34 -618 -154 -884 -368 -80 -64 -1639 -1635 -1671
-1682 -15 -23 -14 -26 20 -67 54 -65 1108 -1127 1119 -1127 5 0 41 28 80 63
58 51 978 979 2330 2351 l216 220 -43 55 c-88 114 -277 282 -424 376 -133 86
-344 165 -476 179 -124 14 -143 14 -267 0z"/>
    <path d="M7235 6474 c-229 -22 -403 -74 -604 -180 -200 -106 -268 -164 -743
-637 -435 -433 -2640 -2665 -2668 -2699 l-19 -25 187 -185 c267 -262 392 -349
603 -418 144 -47 260 -63 429 -57 221 8 412 65 599 179 77 47 154 121 711 678
676 675 2630 2654 2675 2708 l27 33 -26 38 c-54 78 -279 286 -381 353 -215
141 -369 196 -615 221 -25 2 -103 -2 -175 -9z"/>
    <path d="M1415 6469 c-278 -22 -592 -156 -840 -359 -101 -83 -255 -230 -255
-244 0 -13 1149 -1179 1166 -1184 16 -4 1164 1165 1164 1185 0 9 -17 37 -37
62 -183 226 -434 407 -698 501 -91 33 -91 33 -345 43 -36 1 -105 -1 -155 -4z"/>
  </g>
</svg>